<svg id="Layer_1" enable-background="new 0 0 512 512" height="512" viewBox="0 0 512 512" width="512" xmlns="http://www.w3.org/2000/svg"><g><g><g><path d="m488 340h-432v-256c0-17.673 14.327-32 32-32h368c17.673 0 32 14.327 32 32z" fill="#463c4b"/></g><g><path d="m456 340h-400v-256c0-17.673 14.327-32 32-32h336c17.673 0 32 14.327 32 32z" fill="#555a6e"/></g><g><path d="m88 404h368c17.673 0 32-14.327 32-32v-32h-432v32c0 17.673 14.327 32 32 32z" fill="#a5c3dc"/></g><g><path d="m424 404h-336c-17.673 0-32-14.327-32-32v-32h400v32c0 17.673-14.327 32-32 32z" fill="#d7e6f0"/></g><g><path d="m224 404h72v32h-72z" fill="#a5c3dc"/></g><g><path d="m224 420h48v16h-48z" fill="#d7e6f0"/></g><g><path d="m344 460h-176v-8c0-8.837 7.163-16 16-16h144c8.837 0 16 7.163 16 16z" fill="#d7e6f0"/></g><g><path d="m344 460h-48v-8c0-8.837 7.163-16 16-16h16c8.837 0 16 7.163 16 16z" fill="#a5c3dc"/></g></g><g><path d="m56 84v48c0 22.091 17.909 40 40 40s40-17.909 40-40c0 22.091 17.909 40 40 40s40-17.909 40-40c0 22.091 17.909 40 40 40s40-17.909 40-40c0 22.091 17.909 40 40 40s40-17.909 40-40c0 22.091 17.909 40 40 40s40-17.909 40-40v-48z" fill="#463c4b"/></g><g><g><path d="m139.67 201.665 10.991 22.27 24.577 3.571c3.281.477 4.591 4.509 2.217 6.823l-17.784 17.335 4.198 24.477c.56 3.268-2.869 5.759-5.804 4.217l-21.982-11.557-21.982 11.557c-2.935 1.543-6.364-.949-5.804-4.217l4.198-24.477-17.784-17.335c-2.374-2.314-1.064-6.346 2.217-6.823l24.577-3.571 10.991-22.27c1.467-2.973 5.707-2.973 7.174 0z" fill="#ffd241"/></g><g><path d="m259.587 201.665 10.991 22.27 24.577 3.571c3.281.477 4.591 4.509 2.217 6.823l-17.784 17.335 4.198 24.477c.56 3.268-2.869 5.759-5.804 4.217l-21.982-11.557-21.982 11.557c-2.935 1.543-6.364-.949-5.804-4.217l4.198-24.477-17.784-17.335c-2.374-2.314-1.064-6.346 2.217-6.823l24.577-3.571 10.991-22.27c1.467-2.973 5.707-2.973 7.174 0z" fill="#ffd241"/></g><g><path d="m379.504 201.665 10.991 22.27 24.577 3.571c3.281.477 4.591 4.509 2.217 6.823l-17.784 17.335 4.198 24.477c.56 3.268-2.869 5.759-5.804 4.217l-21.982-11.557-21.982 11.557c-2.935 1.543-6.364-.949-5.804-4.217l4.198-24.477-17.784-17.335c-2.374-2.314-1.064-6.346 2.217-6.823l24.577-3.571 10.991-22.27c1.467-2.973 5.707-2.973 7.174 0z" fill="#463c4b"/></g><g><path d="m379.67 172.839 10.991 22.27 24.577 3.571c3.281.477 4.591 4.509 2.217 6.823l-17.784 17.335 4.198 24.477c.56 3.268-2.869 5.759-5.804 4.217l-21.982-11.557-21.982 11.557c-2.935 1.543-6.364-.949-5.804-4.217l4.198-24.477-17.784-17.335c-2.374-2.314-1.064-6.346 2.217-6.823l24.577-3.571 10.991-22.27c1.467-2.973 5.707-2.973 7.174 0z" fill="#ffd241"/></g></g><g><path d="m384 156c22.091 0 40-17.909 40-40h-80c0 22.091 17.909 40 40 40z" fill="#289bc3"/></g><g><path d="m424 116h-80c0-17.673 14.327-32 32-32h80c-17.673 0-32 14.327-32 32z" fill="#00d2d2"/></g><g><path d="m304 156c22.091 0 40-17.909 40-40h-80c0 22.091 17.909 40 40 40z" fill="#e64178"/></g><g><path d="m344 116h-80c0-17.673 14.327-32 32-32h80c-17.673 0-32 14.327-32 32z" fill="#ff6e91"/></g><g><path d="m224 156c22.091 0 40-17.909 40-40h-80c0 22.091 17.909 40 40 40z" fill="#289bc3"/></g><g><path d="m264 116h-80c0-17.673 14.327-32 32-32h80c-17.673 0-32 14.327-32 32z" fill="#00d2d2"/></g><g><path d="m144 156c22.091 0 40-17.909 40-40h-80c0 22.091 17.909 40 40 40z" fill="#e64178"/></g><g><path d="m184 116h-80c0-17.673 14.327-32 32-32h80c-17.673 0-32 14.327-32 32z" fill="#ff6e91"/></g><g><path d="m64 156c22.091 0 40-17.909 40-40h-80c0 22.091 17.909 40 40 40z" fill="#289bc3"/></g><g><path d="m104 116h-80c0-17.673 14.327-32 32-32h80c-17.673 0-32 14.327-32 32z" fill="#00d2d2"/></g><g><g><path d="m472 284c8.837 0 16 7.163 16 16v16h-32v-16c0-8.837 7.163-16 16-16z" fill="#fab991"/></g><g><path d="m440 284c8.837 0 16 7.163 16 16v16h-32v-16c0-8.837 7.163-16 16-16z" fill="#fab991"/></g><g><path d="m408 284c8.837 0 16 7.163 16 16v16h-32v-16c0-8.837 7.163-16 16-16z" fill="#fab991"/></g><g><path d="m376 212c8.837 0 16 7.163 16 16v88h-32v-88c0-8.837 7.163-16 16-16z" fill="#fab991"/></g><g><path d="m360 316v120h112v-24c8.836 0 16-7.163 16-16v-80z" fill="#f0915a"/></g><g><path d="m360 436h56c0-13.255-10.745-24-24-24h-32z" fill="#fab991"/></g><g><path d="m336 316c13.255 0 24 10.745 24 24v72c-17.673 0-32-14.327-32-32v-56c0-4.418 3.582-8 8-8z" fill="#fab991"/></g><g><path d="m472 436h-112c-8.837 0-16 7.163-16 16v8h144v-8c0-8.837-7.163-16-16-16z" fill="#555a6e"/></g><g><path d="m472 436h-56v24h72v-8c0-8.837-7.163-16-16-16z" fill="#463c4b"/></g><g><circle cx="376" cy="228" fill="#f0915a" r="8"/></g><g><path d="m341.333 348h-13.333v-24c10.309 0 18.667 8.357 18.667 18.667 0 2.945-2.388 5.333-5.334 5.333z" fill="#f0915a"/></g></g></g></svg>